<svg width="1440" height="6163" viewBox="0 0 1440 6163" fill="none" xmlns="http://www.w3.org/2000/svg">
<g clip-path="url(#clip0_2001_44)">
<rect width="1440" height="6163" fill="black"/>
<circle cx="115" cy="2106" r="354" fill="url(#paint0_radial_2001_44)" fill-opacity="0.4"/>
<circle cx="152" cy="3959" r="354" fill="url(#paint1_radial_2001_44)" fill-opacity="0.6"/>
<circle cx="1343" cy="4552" r="354" fill="url(#paint2_radial_2001_44)" fill-opacity="0.6"/>
<circle cx="130" cy="5184" r="354" fill="url(#paint3_radial_2001_44)" fill-opacity="0.6"/>
<circle cx="1400" cy="1465" r="354" fill="url(#paint4_radial_2001_44)" fill-opacity="0.6"/>
<circle cx="144" cy="154" r="354" fill="url(#paint5_radial_2001_44)" fill-opacity="0.4"/>
<circle cx="1305" cy="1208" r="354" fill="url(#paint6_radial_2001_44)" fill-opacity="0.6"/>
<circle cx="-57" cy="1872" r="354" fill="url(#paint7_radial_2001_44)" fill-opacity="0.4"/>
<circle cx="-20" cy="3725" r="354" fill="url(#paint8_radial_2001_44)" fill-opacity="0.6"/>
<circle cx="1171" cy="4318" r="354" fill="url(#paint9_radial_2001_44)" fill-opacity="0.4"/>
<circle cx="-42" cy="4950" r="354" fill="url(#paint10_radial_2001_44)" fill-opacity="0.4"/>
<g opacity="0.05">
<mask id="mask0_2001_44" style="mask-type:luminance" maskUnits="userSpaceOnUse" x="-140" y="4965" width="1815" height="532">
<path d="M1674.13 5309.7C1503.46 5150.32 1318.07 4989.82 1062.42 4971.12C838.644 4954.76 711.491 5092.98 584.082 5231.49C416.298 5413.86 248.129 5596.65 -139.776 5433.13V5427.68C245.852 5591.11 412.77 5409.69 579.271 5228.66C707.675 5089.1 835.822 4949.79 1062.93 4966.41C1318.68 4985.13 1503.94 5143.75 1674.1 5302.39V5309.7H1674.13Z" fill="white"/>
</mask>
<g mask="url(#mask0_2001_44)">
<path d="M1674.13 4949.79H-139.775V5596.65H1674.13V4949.79Z" fill="white"/>
</g>
<mask id="mask1_2001_44" style="mask-type:luminance" maskUnits="userSpaceOnUse" x="-140" y="5097" width="1815" height="475">
<path d="M1674.13 5498.39C1515.97 5607.65 1397.41 5581.04 1288.12 5504.2C1232.45 5465.08 1179.38 5412.93 1124.63 5359.18C1006.24 5242.9 880.077 5118.99 705.045 5105.33C560.607 5094.04 480.82 5189.96 401.161 5285.78C285.393 5424.99 169.753 5563.94 -139.808 5384.13V5375.92C167.027 5555.83 280.999 5418.83 395.132 5281.58C476.074 5184.25 557.112 5086.82 705.655 5098.4C883.604 5112.29 1010.79 5237.19 1130.15 5354.44C1184.67 5407.99 1237.55 5459.91 1292.71 5498.68C1400.2 5574.24 1517.09 5599.83 1674.1 5489.51V5498.39H1674.13Z" fill="white"/>
</mask>
<g mask="url(#mask1_2001_44)">
<path d="M1674.13 5086.79H-139.776V5607.65H1674.13V5086.79Z" fill="white"/>
</g>
<mask id="mask2_2001_44" style="mask-type:luminance" maskUnits="userSpaceOnUse" x="-140" y="5093" width="1815" height="461">
<path d="M1674.13 5480.28C1514.56 5590.62 1393.72 5562.47 1281.48 5484.73C1226.8 5446.86 1174.31 5397.19 1120.3 5346.13C1000.98 5233.28 874.337 5113.47 702.159 5101.13C559.87 5090.9 479.794 5184.67 399.878 5278.24C283.02 5415.05 166.482 5551.4 -139.808 5372.24V5363.99C163.82 5543.32 278.69 5408.89 393.914 5274.01C475.08 5178.99 556.438 5083.74 702.736 5094.23C877.736 5106.8 1005.43 5227.57 1125.72 5341.35C1179.47 5392.18 1231.74 5441.63 1286 5479.22C1396.45 5555.7 1515.62 5582.83 1674.07 5471.39V5480.28H1674.13Z" fill="white"/>
</mask>
<g mask="url(#mask2_2001_44)">
<path d="M1674.13 5083.68H-139.776V5590.62H1674.13V5083.68Z" fill="white"/>
</g>
<mask id="mask3_2001_44" style="mask-type:luminance" maskUnits="userSpaceOnUse" x="-140" y="5089" width="1815" height="447">
<path d="M1674.13 5462.12C1512.92 5573.76 1389.62 5543.93 1274.27 5465.2C1220.74 5428.68 1168.98 5381.54 1115.91 5333.21C995.717 5223.73 868.66 5108.02 699.401 5096.96C559.293 5087.79 478.928 5179.41 398.788 5270.74C280.839 5405.14 163.371 5538.99 -139.776 5360.37V5352.1C160.741 5530.88 276.574 5398.92 392.888 5266.34C474.246 5173.6 555.861 5080.57 699.914 5090C871.996 5101.25 1000.08 5217.92 1121.27 5328.27C1174.12 5376.37 1225.62 5423.29 1278.82 5459.59C1392.41 5537.1 1514.05 5565.87 1674.13 5453.15V5462.12Z" fill="white"/>
</mask>
<g mask="url(#mask3_2001_44)">
<path d="M1674.13 5080.57H-139.775V5573.72H1674.13V5080.57Z" fill="white"/>
</g>
<mask id="mask4_2001_44" style="mask-type:luminance" maskUnits="userSpaceOnUse" x="-140" y="5085" width="1815" height="433">
<path d="M1674.13 5443.94C1511.06 5556.98 1385.1 5525.36 1266.44 5445.58C1214.14 5410.43 1163.37 5365.92 1111.45 5320.38C990.426 5214.3 863.048 5102.6 696.675 5092.76C558.747 5084.58 478.126 5174.05 397.794 5263.17C278.69 5395.29 160.228 5526.68 -139.776 5348.63V5340.33C157.695 5518.57 274.522 5389.04 391.958 5258.78C473.509 5168.28 555.38 5077.46 697.156 5085.83C866.287 5095.83 994.723 5208.43 1116.68 5315.38C1168.41 5360.72 1218.98 5405.07 1270.9 5440C1387.82 5518.6 1512.15 5549.22 1674.1 5435.03V5443.94H1674.13Z" fill="white"/>
</mask>
<g mask="url(#mask4_2001_44)">
<path d="M1674.13 5077.46H-139.775V5556.98H1674.13V5077.46Z" fill="white"/>
</g>
<mask id="mask5_2001_44" style="mask-type:luminance" maskUnits="userSpaceOnUse" x="-140" y="5081" width="1815" height="419">
<path d="M1674.13 5425.76C1508.95 5540.44 1380.06 5506.8 1257.85 5425.86C1207.05 5392.21 1157.47 5350.37 1106.9 5307.68C985.167 5204.93 857.533 5097.25 694.046 5088.62C558.363 5081.47 477.485 5168.76 396.96 5255.67C276.734 5385.48 157.214 5514.43 -139.776 5336.93V5328.65C154.745 5506.41 272.597 5379.23 391.156 5251.18C472.899 5162.95 554.995 5074.35 694.431 5081.69C860.675 5090.45 989.303 5199.03 1112 5302.58C1162.38 5345.11 1211.8 5386.8 1262.27 5420.24C1382.76 5500.03 1510 5532.71 1674.1 5416.84V5425.76H1674.13Z" fill="white"/>
</mask>
<g mask="url(#mask5_2001_44)">
<path d="M1674.13 5074.35H-139.775V5540.47H1674.13V5074.35Z" fill="white"/>
</g>
<mask id="mask6_2001_44" style="mask-type:luminance" maskUnits="userSpaceOnUse" x="-140" y="5077" width="1815" height="405">
<path d="M1674.13 5407.61C1506.54 5524.11 1374.51 5488.23 1248.52 5406C1199.32 5373.9 1151.22 5334.84 1102.25 5295.05C979.875 5195.63 852.081 5091.86 691.448 5084.45C558.01 5078.26 476.94 5163.4 396.255 5248.16C274.842 5375.7 154.231 5502.31 -139.808 5325.32V5317.01C151.858 5494.29 270.801 5369.41 390.546 5243.64C472.418 5157.63 554.707 5071.21 691.833 5077.59C855.159 5085.12 983.948 5189.73 1107.32 5289.95C1156.16 5329.62 1204.16 5368.61 1252.94 5400.42C1377.24 5481.53 1507.66 5516.42 1674.17 5398.69V5407.61H1674.13Z" fill="white"/>
</mask>
<g mask="url(#mask6_2001_44)">
<path d="M1674.13 5071.21H-139.776V5524.11H1674.13V5071.21Z" fill="white"/>
</g>
<mask id="mask7_2001_44" style="mask-type:luminance" maskUnits="userSpaceOnUse" x="-140" y="5073" width="1815" height="392">
<path d="M1674.13 5389.49C1503.85 5508.08 1368.36 5469.6 1238.29 5386.03C1191.11 5355.69 1144.71 5319.45 1097.57 5282.6C974.616 5186.53 846.757 5086.63 688.947 5080.35C557.753 5075.12 476.523 5158.11 395.742 5240.69C273.111 5366.01 151.345 5490.31 -139.776 5313.81V5305.47C149.036 5482.3 269.134 5359.66 390.098 5236.07C472.098 5152.28 554.514 5068.06 689.268 5073.42C849.676 5079.77 978.528 5180.5 1102.47 5277.34C1149.45 5314.03 1195.7 5350.2 1242.61 5380.35C1371.02 5462.86 1504.91 5500.32 1674.1 5380.48V5389.49H1674.13Z" fill="white"/>
</mask>
<g mask="url(#mask7_2001_44)">
<path d="M1674.13 5068.06H-139.775V5508.08H1674.13V5068.06Z" fill="white"/>
</g>
<mask id="mask8_2001_44" style="mask-type:luminance" maskUnits="userSpaceOnUse" x="-140" y="5069" width="1815" height="378">
<path d="M1674.13 5371.37C1500.77 5492.3 1361.53 5450.93 1227.03 5365.79C1182.07 5337.31 1137.72 5303.99 1092.82 5270.26C969.324 5177.48 841.498 5081.37 686.542 5076.24C557.657 5071.94 476.299 5152.79 395.389 5233.22C271.507 5356.33 148.587 5478.48 -139.776 5302.39V5294.02C146.31 5470.43 267.595 5349.98 389.809 5228.54C471.905 5146.95 554.418 5064.95 686.798 5069.35C844.32 5074.54 973.173 5171.39 1097.63 5264.93C1142.43 5298.61 1186.65 5331.83 1231.33 5360.11C1364.16 5444.2 1501.86 5484.57 1674.13 5362.33V5371.37Z" fill="white"/>
</mask>
<g mask="url(#mask8_2001_44)">
<path d="M1674.13 5064.95H-139.775V5492.33H1674.13V5064.95Z" fill="white"/>
</g>
<mask id="mask9_2001_44" style="mask-type:luminance" maskUnits="userSpaceOnUse" x="-140" y="5065" width="1815" height="365">
<path d="M1674.13 5353.25C1497.27 5476.88 1353.83 5432.14 1214.52 5345.33C1172.32 5319.03 1130.37 5288.7 1087.98 5258.07C964.065 5168.53 836.303 5076.21 684.201 5072.2C557.625 5068.83 476.202 5147.53 395.229 5225.81C270.064 5346.77 145.893 5466.71 -139.776 5291.07V5282.73C143.713 5458.79 266.216 5340.39 389.681 5221.06C471.841 5141.66 554.418 5061.84 684.393 5065.27C839.029 5069.35 967.785 5162.41 1092.69 5252.65C1134.86 5283.12 1176.59 5313.29 1218.82 5339.59C1356.46 5425.41 1498.36 5469.18 1674.13 5344.21V5353.25Z" fill="white"/>
</mask>
<g mask="url(#mask9_2001_44)">
<path d="M1674.13 5061.81H-139.775V5476.84H1674.13V5061.81Z" fill="white"/>
</g>
<mask id="mask10_2001_44" style="mask-type:luminance" maskUnits="userSpaceOnUse" x="-140" y="5061" width="1815" height="351">
<path d="M1674.13 5335.04C1493.26 5461.71 1345.14 5413.12 1200.6 5324.39C1161.42 5300.34 1122.42 5273.24 1083.1 5245.95C958.806 5159.62 831.204 5071.01 681.924 5068.1C557.689 5065.63 476.234 5142.17 395.196 5218.34C268.749 5337.15 143.264 5455.01 -139.776 5279.75V5271.38C141.147 5447.05 264.965 5330.77 389.777 5213.5C471.969 5136.27 554.578 5058.63 682.084 5061.17C833.834 5064.15 962.43 5153.46 1087.69 5240.43C1126.85 5267.63 1165.68 5294.6 1204.84 5318.65C1347.77 5406.39 1494.36 5454.11 1674.13 5326.02V5335.04Z" fill="white"/>
</mask>
<g mask="url(#mask10_2001_44)">
<path d="M1674.13 5058.63H-139.775V5461.71H1674.13V5058.63Z" fill="white"/>
</g>
<mask id="mask11_2001_44" style="mask-type:luminance" maskUnits="userSpaceOnUse" x="-140" y="5057" width="1815" height="338">
<path d="M1674.13 5317.05C1444.52 5478.35 1264.39 5358.22 1078.17 5234.02C953.579 5150.9 826.233 5065.95 679.743 5064.05C557.882 5062.45 476.427 5136.88 395.357 5210.93C267.595 5327.66 140.73 5443.49 -139.776 5268.59V5260.19C138.678 5435.54 263.875 5321.25 390.001 5206.02C472.194 5130.95 554.771 5055.49 679.839 5057.13C828.735 5059.05 957.074 5144.68 1082.62 5228.41C1267.24 5351.58 1445.83 5470.59 1674.13 5307.68V5317.05Z" fill="white"/>
</mask>
<g mask="url(#mask11_2001_44)">
<path d="M1674.13 5055.49H-139.775V5478.35H1674.13V5055.49Z" fill="white"/>
</g>
<mask id="mask12_2001_44" style="mask-type:luminance" maskUnits="userSpaceOnUse" x="-140" y="5053" width="1815" height="325">
<path d="M1674.13 5298.86C1444.97 5460.23 1261.54 5342.83 1073.16 5222.19C948.351 5142.24 821.295 5060.88 677.627 5060.01C558.138 5059.28 476.747 5131.56 395.71 5203.55C266.568 5318.23 138.325 5432.14 -139.776 5257.56V5249.09C136.337 5424.16 262.977 5311.79 390.418 5198.55C472.579 5125.59 555.092 5052.32 677.659 5053.09C823.7 5053.95 951.719 5135.95 1077.49 5216.51C1264.33 5336.19 1446.25 5452.6 1674.13 5289.56V5298.86Z" fill="white"/>
</mask>
<g mask="url(#mask12_2001_44)">
<path d="M1674.13 5052.32H-139.775V5460.26H1674.13V5052.32Z" fill="white"/>
</g>
<mask id="mask13_2001_44" style="mask-type:luminance" maskUnits="userSpaceOnUse" x="-140" y="5049" width="1815" height="312">
<path d="M1674.13 5280.68C1445.35 5442.21 1258.62 5327.56 1068.1 5210.48C943.124 5133.68 816.452 5055.84 675.574 5055.94C558.523 5056.04 477.229 5126.2 396.255 5196.11C265.735 5308.77 135.984 5420.76 -139.776 5246.49V5238.03C134.06 5412.87 262.175 5302.29 391.06 5191.05C473.124 5120.21 555.509 5049.08 675.606 5049.01C818.826 5048.89 946.427 5127.33 1072.33 5204.71C1261.34 5320.89 1446.6 5434.64 1674.13 5271.41V5280.68Z" fill="white"/>
</mask>
<g mask="url(#mask13_2001_44)">
<path d="M1674.13 5048.92H-139.775V5442.24H1674.13V5048.92Z" fill="white"/>
</g>
<mask id="mask14_2001_44" style="mask-type:luminance" maskUnits="userSpaceOnUse" x="-140" y="5045" width="1815" height="299">
<path d="M1674.13 5262.53C1445.67 5424.32 1255.6 5312.46 1063 5198.94C937.929 5125.21 811.738 5050.84 673.618 5051.93C559.004 5052.8 477.87 5120.88 396.992 5188.74C265.061 5299.44 133.739 5409.53 -139.776 5235.56V5227.09C131.911 5401.74 261.566 5292.99 391.861 5183.67C473.797 5114.92 556.022 5045.94 673.554 5045.04C813.951 5043.95 941.072 5118.86 1067.07 5193.13C1258.23 5305.79 1446.83 5416.88 1674.1 5253.32V5262.53H1674.13Z" fill="white"/>
</mask>
<g mask="url(#mask14_2001_44)">
<path d="M1674.13 5043.92H-139.775V5424.32H1674.13V5043.92Z" fill="white"/>
</g>
<mask id="mask15_2001_44" style="mask-type:luminance" maskUnits="userSpaceOnUse" x="-140" y="5040" width="1815" height="287">
<path d="M1674.13 5244.38C1445.9 5406.49 1252.49 5297.42 1057.83 5187.49C932.734 5116.84 807.088 5045.9 671.726 5047.92C559.549 5049.59 478.64 5115.56 397.922 5181.43C264.548 5290.2 131.623 5398.53 -139.776 5224.78V5216.25C129.827 5390.68 261.149 5283.66 392.888 5176.23C474.663 5109.53 556.631 5042.7 671.63 5041C809.205 5038.94 935.813 5110.43 1061.84 5181.59C1255.09 5290.72 1447.09 5399.01 1674.16 5235.08V5244.38H1674.13Z" fill="white"/>
</mask>
<g mask="url(#mask15_2001_44)">
<path d="M1674.13 5038.98H-139.775V5406.52H1674.13V5038.98Z" fill="white"/>
</g>
<mask id="mask16_2001_44" style="mask-type:luminance" maskUnits="userSpaceOnUse" x="-140" y="5036" width="1815" height="274">
<path d="M1674.13 5226.29C1446.06 5388.85 1249.32 5282.6 1052.64 5176.26C927.603 5108.63 802.567 5041 669.93 5043.95C560.255 5046.35 479.602 5110.27 399.077 5174.11C264.227 5280.97 129.603 5387.66 -139.776 5214.07V5205.54C127.871 5379.84 260.892 5274.46 394.106 5168.89C475.657 5104.24 557.336 5039.52 669.738 5037.05C804.555 5034.07 930.521 5102.18 1056.49 5170.3C1251.79 5275.9 1447.15 5381.41 1674.1 5216.96V5226.29H1674.13Z" fill="white"/>
</mask>
<g mask="url(#mask16_2001_44)">
<path d="M1674.13 5034.07H-139.775V5388.85H1674.13V5034.07Z" fill="white"/>
</g>
<mask id="mask17_2001_44" style="mask-type:luminance" maskUnits="userSpaceOnUse" x="-140" y="5032" width="1815" height="264">
<path d="M1674.13 5208.17C1446.12 5371.24 1246.05 5267.85 1047.41 5165.1C922.472 5100.48 798.109 5036.15 668.198 5039.97C560.992 5043.11 480.724 5104.94 400.392 5166.8C264.099 5271.8 127.678 5376.85 -139.776 5203.43V5194.9C126.011 5369.09 260.828 5265.29 395.517 5161.51C476.844 5098.88 558.106 5036.28 667.942 5033.04C799.969 5029.16 925.262 5093.97 1051.13 5159.07C1248.42 5261.15 1447.21 5363.8 1674.1 5198.78V5208.17H1674.13Z" fill="white"/>
</mask>
<g mask="url(#mask17_2001_44)">
<path d="M1674.13 5029.16H-139.775V5376.82H1674.13V5029.16Z" fill="white"/>
</g>
<mask id="mask18_2001_44" style="mask-type:luminance" maskUnits="userSpaceOnUse" x="-140" y="5028" width="1815" height="258">
<path d="M1674.13 5190.09C1446.16 5353.73 1242.68 5253.26 1042.15 5154.14C917.373 5092.44 793.748 5031.34 666.563 5035.99C561.89 5039.81 482.007 5099.62 401.995 5159.52C264.163 5262.72 125.883 5366.14 -139.776 5192.88V5184.31C124.247 5358.45 260.956 5256.15 397.153 5154.17C478.159 5093.53 559.004 5033.01 666.242 5029.1C795.544 5024.35 920.067 5085.89 1045.74 5148.04C1245.02 5246.53 1447.25 5346.36 1674.13 5180.69V5190.09Z" fill="white"/>
</mask>
<g mask="url(#mask18_2001_44)">
<path d="M1674.13 5024.35H-139.775V5366.18H1674.13V5024.35Z" fill="white"/>
</g>
<mask id="mask19_2001_44" style="mask-type:luminance" maskUnits="userSpaceOnUse" x="-140" y="5024" width="1815" height="252">
<path d="M1674.13 5171.93C1446.09 5336.32 1239.25 5238.8 1036.86 5143.3C912.338 5084.51 789.515 5026.57 664.959 5032.08C562.82 5036.57 483.418 5094.36 403.759 5152.31C264.388 5253.71 124.183 5355.66 -139.776 5182.42V5173.83C122.612 5347.9 261.277 5247.1 399.045 5146.89C479.666 5088.2 559.998 5029.74 664.607 5025.12C791.182 5019.54 914.904 5077.91 1040.32 5137.11C1241.49 5232.06 1447.15 5328.98 1674.13 5162.57V5171.93Z" fill="white"/>
</mask>
<g mask="url(#mask19_2001_44)">
<path d="M1674.13 5019.54H-139.775V5355.62H1674.13V5019.54Z" fill="white"/>
</g>
<mask id="mask20_2001_44" style="mask-type:luminance" maskUnits="userSpaceOnUse" x="-140" y="5113" width="1815" height="476">
<path d="M1674.13 5329.84C1237.61 5751.19 1026.79 5575.81 787.879 5376.95C646.744 5259.48 495.764 5133.8 282.218 5119.95C106.737 5108.57 7.0676 5204.64 -92.7947 5300.91C-108.348 5315.92 -123.934 5330.9 -139.776 5345.52V5337.92C-125.441 5324.61 -111.298 5311.02 -97.1881 5297.39C3.63623 5200.19 104.3 5103.15 282.635 5114.72C498.298 5128.71 650.112 5255.06 791.984 5373.13C1029.33 5570.68 1238.7 5744.81 1674.13 5322.02V5329.84Z" fill="white"/>
</mask>
<g mask="url(#mask20_2001_44)">
<path d="M1674.13 5103.21H-139.775V5751.23H1674.13V5103.21Z" fill="white"/>
</g>
<mask id="mask21_2001_44" style="mask-type:luminance" maskUnits="userSpaceOnUse" x="-140" y="4918" width="1815" height="599">
<path d="M1674.13 4963.49C1604.48 4943.32 1530.75 4929.75 1451.93 4924.84C1155.61 4906.4 987.219 5062.1 818.505 5218.08C596.364 5423.51 373.646 5629.43 -140 5445.22V5439.07C370.632 5623.14 591.682 5418.8 812.155 5214.91C982.184 5057.74 1151.89 4900.82 1452.63 4919.52C1531.17 4924.39 1604.7 4937.8 1674.13 4957.65V4963.49Z" fill="white"/>
</mask>
<g mask="url(#mask21_2001_44)">
<path d="M1674.13 4900.82H-140V5629.43H1674.13V4900.82Z" fill="white"/>
</g>
</g>
<circle cx="74" cy="1160" r="419" fill="url(#paint11_radial_2001_44)" fill-opacity="0.2"/>
<g opacity="0.1">
<mask id="mask22_2001_44" style="mask-type:luminance" maskUnits="userSpaceOnUse" x="-105" y="103" width="1815" height="532">
<path d="M1709.13 447.702C1538.46 288.32 1353.07 127.815 1097.42 109.119C873.644 92.7641 746.491 230.981 619.082 369.486C451.298 551.861 283.129 734.654 -104.776 571.135V565.683C280.852 729.106 447.77 547.692 614.271 366.664C742.675 227.1 870.822 87.7935 1097.93 104.405C1353.68 123.133 1538.94 281.746 1709.1 440.39V447.702H1709.13Z" fill="white"/>
</mask>
<g mask="url(#mask22_2001_44)">
<path d="M1709.13 87.7935H-104.775V734.654H1709.13V87.7935Z" fill="url(#paint12_linear_2001_44)"/>
</g>
<mask id="mask23_2001_44" style="mask-type:luminance" maskUnits="userSpaceOnUse" x="-105" y="235" width="1815" height="475">
<path d="M1709.13 636.395C1550.97 745.653 1432.41 719.036 1323.12 642.199C1267.45 603.075 1214.38 550.931 1159.63 497.184C1041.24 380.902 915.077 256.989 740.045 243.327C595.607 232.039 515.82 327.957 436.161 423.778C320.393 562.989 204.753 701.943 -104.808 522.134V513.924C202.027 693.83 315.999 556.832 430.132 419.577C511.074 322.249 592.112 224.824 740.655 236.4C918.604 250.286 1045.79 375.194 1165.15 492.438C1219.67 545.993 1272.55 597.912 1327.71 636.683C1435.2 712.237 1552.09 737.828 1709.1 627.512V636.395H1709.13Z" fill="white"/>
</mask>
<g mask="url(#mask23_2001_44)">
<path d="M1709.13 224.792H-104.776V745.653H1709.13V224.792Z" fill="url(#paint13_linear_2001_44)"/>
</g>
<mask id="mask24_2001_44" style="mask-type:luminance" maskUnits="userSpaceOnUse" x="-105" y="231" width="1815" height="461">
<path d="M1709.13 618.276C1549.56 728.625 1428.72 700.468 1316.48 622.733C1261.8 584.86 1209.31 535.186 1155.3 484.132C1035.98 371.282 909.337 251.473 737.159 239.126C594.87 228.896 514.794 322.666 434.878 416.242C318.02 553.048 201.482 689.405 -104.808 510.236V501.994C198.82 681.323 313.69 546.891 428.914 412.009C510.08 316.989 591.438 221.745 737.736 232.231C912.736 244.802 1040.43 365.574 1160.72 479.354C1214.47 530.183 1266.74 579.633 1321 617.218C1431.45 693.702 1550.62 720.832 1709.07 609.393V618.276H1709.13Z" fill="white"/>
</mask>
<g mask="url(#mask24_2001_44)">
<path d="M1709.13 221.681H-104.776V728.625H1709.13V221.681Z" fill="url(#paint14_linear_2001_44)"/>
</g>
<mask id="mask25_2001_44" style="mask-type:luminance" maskUnits="userSpaceOnUse" x="-105" y="227" width="1815" height="447">
<path d="M1709.13 600.125C1547.92 711.756 1424.62 681.932 1309.27 603.203C1255.74 566.677 1203.98 519.536 1150.91 471.208C1030.72 361.725 903.66 246.021 734.401 234.957C594.293 225.785 513.928 317.406 433.788 408.738C315.839 543.138 198.371 676.994 -104.776 498.37V490.097C195.741 668.88 311.574 536.917 427.888 404.345C509.246 311.602 590.861 218.57 734.914 227.998C906.996 239.254 1035.08 355.921 1156.27 466.27C1209.12 514.373 1260.62 561.289 1313.82 597.591C1427.41 675.102 1549.05 703.867 1709.13 591.146V600.125Z" fill="white"/>
</mask>
<g mask="url(#mask25_2001_44)">
<path d="M1709.13 218.57H-104.775V711.724H1709.13V218.57Z" fill="url(#paint15_linear_2001_44)"/>
</g>
<mask id="mask26_2001_44" style="mask-type:luminance" maskUnits="userSpaceOnUse" x="-105" y="223" width="1815" height="433">
<path d="M1709.13 581.942C1546.06 694.984 1420.1 663.365 1301.44 583.577C1249.14 548.43 1198.37 503.918 1146.45 458.381C1025.43 352.297 898.048 240.601 731.675 230.756C593.747 222.579 513.126 312.051 432.794 401.17C313.69 533.294 195.228 664.679 -104.776 486.633V478.328C192.695 656.566 309.522 527.04 426.958 396.777C508.509 306.278 590.38 215.459 732.156 223.829C901.287 233.835 1029.72 346.428 1151.68 453.378C1203.41 498.723 1253.98 543.074 1305.9 577.997C1422.82 656.598 1547.15 687.224 1709.1 573.027V581.942H1709.13Z" fill="white"/>
</mask>
<g mask="url(#mask26_2001_44)">
<path d="M1709.13 215.459H-104.775V694.985H1709.13V215.459Z" fill="url(#paint16_linear_2001_44)"/>
</g>
<mask id="mask27_2001_44" style="mask-type:luminance" maskUnits="userSpaceOnUse" x="-105" y="219" width="1815" height="419">
<path d="M1709.13 563.759C1543.95 678.437 1415.06 644.797 1292.85 563.855C1242.05 530.215 1192.47 488.365 1141.9 445.681C1020.17 342.933 892.533 235.246 729.046 226.619C593.363 219.468 512.485 306.759 431.96 393.666C311.734 523.48 192.214 652.429 -104.776 474.928V466.654C189.745 644.412 307.597 517.227 426.156 389.176C507.899 300.955 589.995 212.349 729.431 219.692C895.675 228.447 1024.3 337.032 1147 440.583C1197.38 483.106 1246.8 524.795 1297.27 558.243C1417.76 638.03 1545 670.708 1709.1 554.844V563.759H1709.13Z" fill="white"/>
</mask>
<g mask="url(#mask27_2001_44)">
<path d="M1709.13 212.349H-104.775V678.469H1709.13V212.349Z" fill="url(#paint17_linear_2001_44)"/>
</g>
<mask id="mask28_2001_44" style="mask-type:luminance" maskUnits="userSpaceOnUse" x="-105" y="215" width="1815" height="405">
<path d="M1709.13 545.608C1541.54 662.114 1409.51 626.229 1283.52 544.004C1234.32 511.904 1186.22 472.844 1137.25 433.046C1014.88 333.633 887.081 229.858 726.448 222.45C593.01 216.261 511.94 301.404 431.255 386.162C309.842 513.699 189.231 640.307 -104.808 463.319V455.013C186.858 632.29 305.801 507.414 425.546 381.64C507.418 295.631 589.707 209.206 726.833 215.588C890.159 223.124 1018.95 327.732 1142.32 427.947C1191.16 467.616 1239.16 506.612 1287.94 538.424C1412.24 619.526 1542.66 654.417 1709.17 536.693V545.608H1709.13Z" fill="white"/>
</mask>
<g mask="url(#mask28_2001_44)">
<path d="M1709.13 209.206H-104.776V662.114H1709.13V209.206Z" fill="url(#paint18_linear_2001_44)"/>
</g>
<mask id="mask29_2001_44" style="mask-type:luminance" maskUnits="userSpaceOnUse" x="-105" y="211" width="1815" height="392">
<path d="M1709.13 527.489C1538.85 646.079 1403.36 607.597 1273.29 524.025C1226.11 493.688 1179.71 457.451 1132.57 420.604C1009.62 324.525 881.757 224.631 723.947 218.346C592.753 213.118 511.523 296.112 430.742 378.69C308.111 504.015 186.345 628.313 -104.776 451.807V443.469C184.036 620.296 304.134 497.665 425.098 374.072C507.098 290.276 589.514 206.063 724.268 211.419C884.676 217.768 1013.53 318.496 1137.47 415.344C1184.45 452.031 1230.7 488.205 1277.61 518.349C1406.02 600.862 1539.91 638.319 1709.1 518.478V527.489H1709.13Z" fill="white"/>
</mask>
<g mask="url(#mask29_2001_44)">
<path d="M1709.13 206.063H-104.775V646.079H1709.13V206.063Z" fill="url(#paint19_linear_2001_44)"/>
</g>
<mask id="mask30_2001_44" style="mask-type:luminance" maskUnits="userSpaceOnUse" x="-105" y="207" width="1815" height="378">
<path d="M1709.13 509.37C1535.77 630.302 1396.53 588.933 1262.03 503.79C1217.07 475.313 1172.72 441.994 1127.82 408.257C1004.32 315.482 876.498 219.372 721.542 214.241C592.657 209.944 511.299 290.789 430.389 371.218C306.507 494.33 183.587 616.48 -104.776 440.39V432.02C181.31 608.431 302.595 487.98 424.809 366.536C506.905 284.953 589.418 202.953 721.798 207.346C879.32 212.541 1008.17 309.389 1132.63 402.934C1177.43 436.606 1221.65 469.829 1266.33 498.114C1399.16 582.198 1536.86 622.573 1709.13 500.327V509.37Z" fill="white"/>
</mask>
<g mask="url(#mask30_2001_44)">
<path d="M1709.13 202.953H-104.775V630.334H1709.13V202.953Z" fill="url(#paint20_linear_2001_44)"/>
</g>
<mask id="mask31_2001_44" style="mask-type:luminance" maskUnits="userSpaceOnUse" x="-105" y="203" width="1815" height="365">
<path d="M1709.13 491.251C1532.27 614.877 1388.83 570.141 1249.52 483.33C1207.32 457.034 1165.37 426.697 1122.98 396.071C999.065 306.535 871.303 214.209 719.201 210.2C592.625 206.833 511.202 285.53 430.229 363.81C305.064 484.773 180.893 604.711 -104.776 429.07V420.732C178.713 596.79 301.216 478.392 424.681 359.064C506.841 279.661 589.418 199.842 719.393 203.273C874.029 207.346 1002.79 300.41 1127.69 390.651C1169.86 421.117 1211.59 451.294 1253.82 477.59C1391.46 563.406 1533.36 607.18 1709.13 482.208V491.251Z" fill="white"/>
</mask>
<g mask="url(#mask31_2001_44)">
<path d="M1709.13 199.81H-104.775V614.844H1709.13V199.81Z" fill="url(#paint21_linear_2001_44)"/>
</g>
<mask id="mask32_2001_44" style="mask-type:luminance" maskUnits="userSpaceOnUse" x="-105" y="199" width="1815" height="351">
<path d="M1709.13 473.036C1528.26 599.708 1380.14 551.124 1235.6 462.389C1196.42 438.338 1157.42 411.239 1118.1 383.949C993.806 297.62 866.204 209.013 716.924 206.095C592.689 203.626 511.234 280.174 430.196 356.338C303.749 475.153 178.264 593.005 -104.776 417.749V409.379C176.147 585.052 299.965 468.771 424.777 351.495C506.969 274.273 589.578 196.635 717.084 199.168C868.834 202.151 997.43 291.462 1122.69 378.433C1161.85 405.627 1200.68 432.597 1239.84 456.649C1382.77 544.389 1529.36 592.108 1709.13 464.025V473.036Z" fill="white"/>
</mask>
<g mask="url(#mask32_2001_44)">
<path d="M1709.13 196.635H-104.775V599.708H1709.13V196.635Z" fill="url(#paint22_linear_2001_44)"/>
</g>
<mask id="mask33_2001_44" style="mask-type:luminance" maskUnits="userSpaceOnUse" x="-105" y="195" width="1815" height="338">
<path d="M1709.13 455.045C1479.52 616.352 1299.39 496.222 1113.17 372.019C988.579 288.897 861.233 203.947 714.743 202.055C592.882 200.451 511.427 274.883 430.357 348.93C302.595 465.66 175.73 581.493 -104.776 406.589V398.187C173.678 573.54 298.875 459.246 425.001 344.023C507.194 268.95 589.771 193.492 714.839 195.128C863.735 197.052 992.074 282.676 1117.62 366.407C1302.24 489.584 1480.83 608.591 1709.13 445.681V455.045Z" fill="white"/>
</mask>
<g mask="url(#mask33_2001_44)">
<path d="M1709.13 193.492H-104.775V616.351H1709.13V193.492Z" fill="url(#paint23_linear_2001_44)"/>
</g>
<mask id="mask34_2001_44" style="mask-type:luminance" maskUnits="userSpaceOnUse" x="-105" y="191" width="1815" height="325">
<path d="M1709.13 436.862C1479.97 598.233 1296.54 480.829 1108.16 360.186C983.351 280.238 856.295 198.88 712.627 198.014C593.138 197.276 511.747 269.559 430.71 341.554C301.568 456.232 173.325 570.14 -104.776 395.558V387.092C171.337 562.155 297.977 449.786 425.418 336.551C507.579 263.595 590.092 190.317 712.659 191.087C858.7 191.953 986.719 273.953 1112.49 354.51C1299.33 474.191 1481.25 590.6 1709.13 427.562V436.862Z" fill="white"/>
</mask>
<g mask="url(#mask34_2001_44)">
<path d="M1709.13 190.317H-104.775V598.265H1709.13V190.317Z" fill="url(#paint24_linear_2001_44)"/>
</g>
<mask id="mask35_2001_44" style="mask-type:luminance" maskUnits="userSpaceOnUse" x="-105" y="187" width="1815" height="312">
<path d="M1709.13 418.679C1480.35 580.21 1293.62 465.564 1103.1 348.481C978.124 271.676 851.452 193.845 710.574 193.941C593.523 194.037 512.229 264.204 431.255 334.114C300.735 446.772 170.984 558.756 -104.776 384.494V376.028C169.06 550.867 297.175 440.294 426.06 329.047C508.124 258.207 590.509 187.078 710.606 187.014C853.826 186.886 981.427 265.326 1107.33 342.708C1296.34 458.894 1481.6 572.642 1709.13 409.412V418.679Z" fill="white"/>
</mask>
<g mask="url(#mask35_2001_44)">
<path d="M1709.13 186.918H-104.775V580.242H1709.13V186.918Z" fill="url(#paint25_linear_2001_44)"/>
</g>
<mask id="mask36_2001_44" style="mask-type:luminance" maskUnits="userSpaceOnUse" x="-105" y="183" width="1815" height="299">
<path d="M1709.13 400.529C1480.67 562.316 1290.6 450.46 1098 336.936C972.929 263.21 846.738 188.842 708.618 189.933C594.004 190.799 512.87 258.881 431.992 326.738C300.061 437.44 168.739 547.532 -104.776 373.559V365.093C166.911 539.739 296.566 430.994 426.861 321.671C508.797 252.916 591.022 183.936 708.554 183.038C848.951 181.948 976.072 256.86 1102.07 331.132C1293.23 443.789 1481.83 554.876 1709.1 391.325V400.529H1709.13Z" fill="white"/>
</mask>
<g mask="url(#mask36_2001_44)">
<path d="M1709.13 181.916H-104.775V562.316H1709.13V181.916Z" fill="url(#paint26_linear_2001_44)"/>
</g>
<mask id="mask37_2001_44" style="mask-type:luminance" maskUnits="userSpaceOnUse" x="-105" y="178" width="1815" height="287">
<path d="M1709.13 382.377C1480.9 544.485 1287.49 435.419 1092.83 325.487C967.734 254.84 842.088 183.904 706.726 185.924C594.549 187.591 513.64 253.557 432.922 319.426C299.548 428.204 166.623 536.532 -104.776 362.783V354.253C164.827 528.675 296.149 421.662 427.888 314.231C509.663 247.528 591.631 180.697 706.63 178.997C844.205 176.945 970.813 248.426 1096.84 319.587C1290.09 428.717 1482.09 537.013 1709.16 373.078V382.377H1709.13Z" fill="white"/>
</mask>
<g mask="url(#mask37_2001_44)">
<path d="M1709.13 176.977H-104.775V544.518H1709.13V176.977Z" fill="url(#paint27_linear_2001_44)"/>
</g>
<mask id="mask38_2001_44" style="mask-type:luminance" maskUnits="userSpaceOnUse" x="-105" y="174" width="1815" height="274">
<path d="M1709.13 364.291C1481.06 526.847 1284.32 420.603 1087.64 314.263C962.603 246.63 837.567 178.997 704.93 181.947C595.255 184.352 514.602 248.266 434.077 312.115C299.227 418.968 164.603 525.661 -104.776 352.072V343.542C162.871 517.836 295.892 412.458 429.106 306.887C510.657 242.237 592.336 177.522 704.738 175.053C839.555 172.07 965.521 240.184 1091.49 308.298C1286.79 413.901 1482.15 519.407 1709.1 354.959V364.291H1709.13Z" fill="white"/>
</mask>
<g mask="url(#mask38_2001_44)">
<path d="M1709.13 172.07H-104.775V526.847H1709.13V172.07Z" fill="url(#paint28_linear_2001_44)"/>
</g>
<mask id="mask39_2001_44" style="mask-type:luminance" maskUnits="userSpaceOnUse" x="-105" y="170" width="1815" height="264">
<path d="M1709.13 346.172C1481.12 509.242 1281.05 405.852 1082.41 303.103C957.472 238.485 833.109 174.155 703.198 177.971C595.992 181.114 515.724 242.942 435.392 304.803C299.099 409.796 162.678 514.854 -104.776 341.426V332.895C161.011 507.093 295.828 403.286 430.517 299.512C511.844 236.881 593.106 174.283 702.942 171.044C834.969 167.164 960.262 231.975 1086.13 297.074C1283.42 399.149 1482.21 501.802 1709.1 336.776V346.172H1709.13Z" fill="white"/>
</mask>
<g mask="url(#mask39_2001_44)">
<path d="M1709.13 167.164H-104.775V514.822H1709.13V167.164Z" fill="url(#paint29_linear_2001_44)"/>
</g>
<mask id="mask40_2001_44" style="mask-type:luminance" maskUnits="userSpaceOnUse" x="-105" y="166" width="1815" height="258">
<path d="M1709.13 328.085C1481.16 491.732 1277.68 391.261 1077.15 292.136C952.373 230.436 828.748 169.345 701.563 173.995C596.89 177.811 517.007 237.619 436.995 297.524C299.163 400.721 160.883 504.143 -104.776 330.875V322.313C159.247 496.447 295.956 394.147 432.153 292.168C513.159 231.526 594.004 171.012 701.242 167.1C830.544 162.354 955.067 223.894 1080.74 286.043C1280.02 384.526 1482.25 484.357 1709.13 318.689V328.085Z" fill="white"/>
</mask>
<g mask="url(#mask40_2001_44)">
<path d="M1709.13 162.354H-104.775V504.175H1709.13V162.354Z" fill="url(#paint30_linear_2001_44)"/>
</g>
<mask id="mask41_2001_44" style="mask-type:luminance" maskUnits="userSpaceOnUse" x="-105" y="162" width="1815" height="252">
<path d="M1709.13 309.934C1481.09 474.319 1274.25 376.798 1071.86 281.297C947.338 222.514 824.515 164.566 699.959 170.082C597.82 174.572 518.418 232.36 438.759 290.308C299.388 391.71 159.183 493.656 -104.776 320.421V311.826C157.612 485.896 296.277 385.103 434.045 284.888C514.666 226.202 594.998 167.741 699.607 163.123C826.182 157.543 949.904 215.908 1075.32 275.107C1276.49 370.063 1482.15 466.975 1709.13 300.57V309.934Z" fill="white"/>
</mask>
<g mask="url(#mask41_2001_44)">
<path d="M1709.13 157.543H-104.775V493.624H1709.13V157.543Z" fill="url(#paint31_linear_2001_44)"/>
</g>
<mask id="mask42_2001_44" style="mask-type:luminance" maskUnits="userSpaceOnUse" x="-105" y="251" width="1815" height="476">
<path d="M1709.13 467.841C1272.61 889.193 1061.79 713.809 822.879 514.95C681.744 397.482 530.764 271.804 317.218 257.951C141.737 246.566 42.0676 342.644 -57.7947 438.915C-73.3481 453.923 -88.9335 468.899 -104.776 483.523V475.922C-90.4408 462.614 -76.2984 449.017 -62.1881 435.387C38.6362 338.187 139.3 241.146 317.635 252.723C533.298 266.705 685.112 393.056 826.984 511.134C1064.33 708.678 1273.7 882.811 1709.13 460.016V467.841Z" fill="white"/>
</mask>
<g mask="url(#mask42_2001_44)">
<path d="M1709.13 241.211H-104.775V889.225H1709.13V241.211Z" fill="url(#paint32_linear_2001_44)"/>
</g>
<mask id="mask43_2001_44" style="mask-type:luminance" maskUnits="userSpaceOnUse" x="-105" y="56" width="1815" height="599">
<path d="M1709.13 101.487C1639.48 81.3155 1565.75 67.7504 1486.93 62.8438C1190.61 44.4043 1022.22 200.098 853.505 356.081C631.364 561.514 408.646 767.428 -105 583.225V577.067C405.632 761.142 626.682 556.8 847.155 352.906C1017.18 195.737 1186.89 38.8243 1487.63 57.5204C1566.17 62.3949 1639.7 75.7996 1709.13 95.6502V101.487Z" fill="white"/>
</mask>
<g mask="url(#mask43_2001_44)">
<path d="M1709.13 38.8245H-105V767.428H1709.13V38.8245Z" fill="url(#paint33_linear_2001_44)"/>
</g>
</g>
<g opacity="0.1">
<mask id="mask44_2001_44" style="mask-type:luminance" maskUnits="userSpaceOnUse" x="-97" y="3610" width="1815" height="532">
<path d="M1717.13 3954.7C1546.46 3795.32 1361.07 3634.82 1105.42 3616.12C881.644 3599.76 754.491 3737.98 627.082 3876.49C459.298 4058.86 291.129 4241.65 -96.7755 4078.13V4072.68C288.852 4236.11 455.77 4054.69 622.271 3873.66C750.675 3734.1 878.822 3594.79 1105.93 3611.41C1361.68 3630.13 1546.94 3788.75 1717.1 3947.39V3954.7H1717.13Z" fill="white"/>
</mask>
<g mask="url(#mask44_2001_44)">
<path d="M1717.13 3594.79H-96.7755V4241.65H1717.13V3594.79Z" fill="#6557FF"/>
</g>
<mask id="mask45_2001_44" style="mask-type:luminance" maskUnits="userSpaceOnUse" x="-97" y="3742" width="1815" height="475">
<path d="M1717.13 4143.39C1558.97 4252.65 1440.41 4226.04 1331.12 4149.2C1275.45 4110.08 1222.38 4057.93 1167.63 4004.18C1049.24 3887.9 923.077 3763.99 748.045 3750.33C603.607 3739.04 523.82 3834.96 444.161 3930.78C328.393 4069.99 212.753 4208.94 -96.8077 4029.13V4020.92C210.027 4200.83 323.999 4063.83 438.132 3926.58C519.074 3829.25 600.112 3731.82 748.655 3743.4C926.604 3757.29 1053.79 3882.19 1173.15 3999.44C1227.67 4052.99 1280.55 4104.91 1335.71 4143.68C1443.2 4219.24 1560.09 4244.83 1717.1 4134.51V4143.39H1717.13Z" fill="white"/>
</mask>
<g mask="url(#mask45_2001_44)">
<path d="M1717.13 3731.79H-96.7756V4252.65H1717.13V3731.79Z" fill="#6557FF"/>
</g>
<mask id="mask46_2001_44" style="mask-type:luminance" maskUnits="userSpaceOnUse" x="-97" y="3738" width="1815" height="461">
<path d="M1717.13 4125.28C1557.56 4235.62 1436.72 4207.47 1324.48 4129.73C1269.8 4091.86 1217.31 4042.19 1163.3 3991.13C1043.98 3878.28 917.337 3758.47 745.159 3746.13C602.87 3735.9 522.794 3829.67 442.878 3923.24C326.02 4060.05 209.482 4196.4 -96.8077 4017.24V4008.99C206.82 4188.32 321.69 4053.89 436.914 3919.01C518.08 3823.99 599.438 3728.74 745.736 3739.23C920.736 3751.8 1048.43 3872.57 1168.72 3986.35C1222.47 4037.18 1274.74 4086.63 1329 4124.22C1439.45 4200.7 1558.62 4227.83 1717.07 4116.39V4125.28H1717.13Z" fill="white"/>
</mask>
<g mask="url(#mask46_2001_44)">
<path d="M1717.13 3728.68H-96.7756V4235.62H1717.13V3728.68Z" fill="#6557FF"/>
</g>
<mask id="mask47_2001_44" style="mask-type:luminance" maskUnits="userSpaceOnUse" x="-97" y="3734" width="1815" height="447">
<path d="M1717.13 4107.12C1555.92 4218.76 1432.62 4188.93 1317.27 4110.2C1263.74 4073.68 1211.98 4026.54 1158.91 3978.21C1038.72 3868.73 911.66 3753.02 742.401 3741.96C602.293 3732.79 521.928 3824.41 441.788 3915.74C323.839 4050.14 206.371 4183.99 -96.7755 4005.37V3997.1C203.741 4175.88 319.574 4043.92 435.888 3911.34C517.246 3818.6 598.861 3725.57 742.914 3735C914.996 3746.25 1043.08 3862.92 1164.27 3973.27C1217.12 4021.37 1268.62 4068.29 1321.82 4104.59C1435.41 4182.1 1557.05 4210.87 1717.13 4098.15V4107.12Z" fill="white"/>
</mask>
<g mask="url(#mask47_2001_44)">
<path d="M1717.13 3725.57H-96.7755V4218.72H1717.13V3725.57Z" fill="#6557FF"/>
</g>
<mask id="mask48_2001_44" style="mask-type:luminance" maskUnits="userSpaceOnUse" x="-97" y="3730" width="1815" height="433">
<path d="M1717.13 4088.94C1554.06 4201.98 1428.1 4170.36 1309.44 4090.58C1257.14 4055.43 1206.37 4010.92 1154.45 3965.38C1033.43 3859.3 906.048 3747.6 739.675 3737.76C601.747 3729.58 521.126 3819.05 440.794 3908.17C321.69 4040.29 203.228 4171.68 -96.7755 3993.63V3985.33C200.695 4163.57 317.522 4034.04 434.958 3903.78C516.509 3813.28 598.38 3722.46 740.156 3730.83C909.287 3740.83 1037.72 3853.43 1159.68 3960.38C1211.41 4005.72 1261.98 4050.07 1313.9 4085C1430.82 4163.6 1555.15 4194.22 1717.1 4080.03V4088.94H1717.13Z" fill="white"/>
</mask>
<g mask="url(#mask48_2001_44)">
<path d="M1717.13 3722.46H-96.7755V4201.98H1717.13V3722.46Z" fill="#6557FF"/>
</g>
<mask id="mask49_2001_44" style="mask-type:luminance" maskUnits="userSpaceOnUse" x="-97" y="3726" width="1815" height="419">
<path d="M1717.13 4070.76C1551.95 4185.44 1423.06 4151.8 1300.85 4070.85C1250.05 4037.21 1200.47 3995.36 1149.9 3952.68C1028.17 3849.93 900.533 3742.25 737.046 3733.62C601.363 3726.47 520.485 3813.76 439.96 3900.67C319.734 4030.48 200.214 4159.43 -96.7755 3981.93V3973.65C197.745 4151.41 315.597 4024.23 434.156 3896.18C515.899 3807.95 597.995 3719.35 737.431 3726.69C903.675 3735.45 1032.3 3844.03 1155 3947.58C1205.38 3990.11 1254.8 4031.8 1305.27 4065.24C1425.76 4145.03 1553 4177.71 1717.1 4061.84V4070.76H1717.13Z" fill="white"/>
</mask>
<g mask="url(#mask49_2001_44)">
<path d="M1717.13 3719.35H-96.7755V4185.47H1717.13V3719.35Z" fill="#6557FF"/>
</g>
<mask id="mask50_2001_44" style="mask-type:luminance" maskUnits="userSpaceOnUse" x="-97" y="3722" width="1815" height="405">
<path d="M1717.13 4052.61C1549.54 4169.11 1417.51 4133.23 1291.52 4051C1242.32 4018.9 1194.22 3979.84 1145.25 3940.05C1022.88 3840.63 895.081 3736.86 734.448 3729.45C601.01 3723.26 519.94 3808.4 439.255 3893.16C317.842 4020.7 197.231 4147.31 -96.8077 3970.32V3962.01C194.858 4139.29 313.801 4014.41 433.546 3888.64C515.418 3802.63 597.707 3716.21 734.833 3722.59C898.159 3730.12 1026.95 3834.73 1150.32 3934.95C1199.16 3974.62 1247.16 4013.61 1295.94 4045.42C1420.24 4126.53 1550.66 4161.42 1717.17 4043.69V4052.61H1717.13Z" fill="white"/>
</mask>
<g mask="url(#mask50_2001_44)">
<path d="M1717.13 3716.21H-96.7756V4169.11H1717.13V3716.21Z" fill="#6557FF"/>
</g>
<mask id="mask51_2001_44" style="mask-type:luminance" maskUnits="userSpaceOnUse" x="-97" y="3718" width="1815" height="392">
<path d="M1717.13 4034.49C1546.85 4153.08 1411.36 4114.6 1281.29 4031.03C1234.11 4000.69 1187.71 3964.45 1140.57 3927.6C1017.62 3831.53 889.757 3731.63 731.947 3725.35C600.753 3720.12 519.523 3803.11 438.742 3885.69C316.111 4011.01 194.345 4135.31 -96.7755 3958.81V3950.47C192.036 4127.3 312.134 4004.66 433.098 3881.07C515.098 3797.28 597.514 3713.06 732.268 3718.42C892.676 3724.77 1021.53 3825.5 1145.47 3922.34C1192.45 3959.03 1238.7 3995.2 1285.61 4025.35C1414.02 4107.86 1547.91 4145.32 1717.1 4025.48V4034.49H1717.13Z" fill="white"/>
</mask>
<g mask="url(#mask51_2001_44)">
<path d="M1717.13 3713.06H-96.7755V4153.08H1717.13V3713.06Z" fill="#6557FF"/>
</g>
<mask id="mask52_2001_44" style="mask-type:luminance" maskUnits="userSpaceOnUse" x="-97" y="3714" width="1815" height="378">
<path d="M1717.13 4016.37C1543.77 4137.3 1404.53 4095.93 1270.03 4010.79C1225.07 3982.31 1180.72 3948.99 1135.82 3915.26C1012.32 3822.48 884.498 3726.37 729.542 3721.24C600.657 3716.94 519.299 3797.79 438.389 3878.22C314.507 4001.33 191.587 4123.48 -96.7755 3947.39V3939.02C189.31 4115.43 310.595 3994.98 432.809 3873.54C514.905 3791.95 597.418 3709.95 729.798 3714.35C887.32 3719.54 1016.17 3816.39 1140.63 3909.93C1185.43 3943.61 1229.65 3976.83 1274.33 4005.11C1407.16 4089.2 1544.86 4129.57 1717.13 4007.33V4016.37Z" fill="white"/>
</mask>
<g mask="url(#mask52_2001_44)">
<path d="M1717.13 3709.95H-96.7755V4137.33H1717.13V3709.95Z" fill="#6557FF"/>
</g>
<mask id="mask53_2001_44" style="mask-type:luminance" maskUnits="userSpaceOnUse" x="-97" y="3710" width="1815" height="365">
<path d="M1717.13 3998.25C1540.27 4121.88 1396.83 4077.14 1257.52 3990.33C1215.32 3964.03 1173.37 3933.7 1130.98 3903.07C1007.07 3813.53 879.303 3721.21 727.201 3717.2C600.625 3713.83 519.202 3792.53 438.229 3870.81C313.064 3991.77 188.893 4111.71 -96.7755 3936.07V3927.73C186.713 4103.79 309.216 3985.39 432.681 3866.06C514.841 3786.66 597.418 3706.84 727.393 3710.27C882.029 3714.35 1010.79 3807.41 1135.69 3897.65C1177.86 3928.12 1219.59 3958.29 1261.82 3984.59C1399.46 4070.41 1541.36 4114.18 1717.13 3989.21V3998.25Z" fill="white"/>
</mask>
<g mask="url(#mask53_2001_44)">
<path d="M1717.13 3706.81H-96.7755V4121.84H1717.13V3706.81Z" fill="#6557FF"/>
</g>
<mask id="mask54_2001_44" style="mask-type:luminance" maskUnits="userSpaceOnUse" x="-97" y="3706" width="1815" height="351">
<path d="M1717.13 3980.04C1536.26 4106.71 1388.14 4058.12 1243.6 3969.39C1204.42 3945.34 1165.42 3918.24 1126.1 3890.95C1001.81 3804.62 874.204 3716.01 724.924 3713.1C600.689 3710.63 519.234 3787.17 438.196 3863.34C311.749 3982.15 186.264 4100.01 -96.7755 3924.75V3916.38C184.147 4092.05 307.965 3975.77 432.777 3858.5C514.969 3781.27 597.578 3703.63 725.084 3706.17C876.834 3709.15 1005.43 3798.46 1130.69 3885.43C1169.85 3912.63 1208.68 3939.6 1247.84 3963.65C1390.77 4051.39 1537.36 4099.11 1717.13 3971.02V3980.04Z" fill="white"/>
</mask>
<g mask="url(#mask54_2001_44)">
<path d="M1717.13 3703.64H-96.7755V4106.71H1717.13V3703.64Z" fill="#6557FF"/>
</g>
<mask id="mask55_2001_44" style="mask-type:luminance" maskUnits="userSpaceOnUse" x="-97" y="3702" width="1815" height="338">
<path d="M1717.13 3962.05C1487.52 4123.35 1307.39 4003.22 1121.17 3879.02C996.579 3795.9 869.233 3710.95 722.743 3709.05C600.882 3707.45 519.427 3781.88 438.357 3855.93C310.595 3972.66 183.73 4088.49 -96.7755 3913.59V3905.19C181.678 4080.54 306.875 3966.25 433.001 3851.02C515.194 3775.95 597.771 3700.49 722.839 3702.13C871.735 3704.05 1000.07 3789.68 1125.62 3873.41C1310.24 3996.58 1488.83 4115.59 1717.13 3952.68V3962.05Z" fill="white"/>
</mask>
<g mask="url(#mask55_2001_44)">
<path d="M1717.13 3700.49H-96.7755V4123.35H1717.13V3700.49Z" fill="#6557FF"/>
</g>
<mask id="mask56_2001_44" style="mask-type:luminance" maskUnits="userSpaceOnUse" x="-97" y="3698" width="1815" height="325">
<path d="M1717.13 3943.86C1487.97 4105.23 1304.54 3987.83 1116.16 3867.19C991.351 3787.24 864.295 3705.88 720.627 3705.01C601.138 3704.28 519.747 3776.56 438.71 3848.55C309.568 3963.23 181.325 4077.14 -96.7755 3902.56V3894.09C179.337 4069.16 305.977 3956.79 433.418 3843.55C515.579 3770.59 598.092 3697.32 720.659 3698.09C866.7 3698.95 994.719 3780.95 1120.49 3861.51C1307.33 3981.19 1489.25 4097.6 1717.13 3934.56V3943.86Z" fill="white"/>
</mask>
<g mask="url(#mask56_2001_44)">
<path d="M1717.13 3697.32H-96.7755V4105.26H1717.13V3697.32Z" fill="#6557FF"/>
</g>
<mask id="mask57_2001_44" style="mask-type:luminance" maskUnits="userSpaceOnUse" x="-97" y="3694" width="1815" height="312">
<path d="M1717.13 3925.68C1488.35 4087.21 1301.62 3972.56 1111.1 3855.48C986.124 3778.68 859.452 3700.84 718.574 3700.94C601.523 3701.04 520.229 3771.2 439.255 3841.11C308.735 3953.77 178.984 4065.76 -96.7755 3891.49V3883.03C177.06 4057.87 305.175 3947.29 434.06 3836.05C516.124 3765.21 598.509 3694.08 718.606 3694.01C861.826 3693.89 989.427 3772.33 1115.33 3849.71C1304.34 3965.89 1489.6 4079.64 1717.13 3916.41V3925.68Z" fill="white"/>
</mask>
<g mask="url(#mask57_2001_44)">
<path d="M1717.13 3693.92H-96.7755V4087.24H1717.13V3693.92Z" fill="#6557FF"/>
</g>
<mask id="mask58_2001_44" style="mask-type:luminance" maskUnits="userSpaceOnUse" x="-97" y="3690" width="1815" height="299">
<path d="M1717.13 3907.53C1488.67 4069.32 1298.6 3957.46 1106 3843.94C980.929 3770.21 854.738 3695.84 716.618 3696.93C602.004 3697.8 520.87 3765.88 439.992 3833.74C308.061 3944.44 176.739 4054.53 -96.7755 3880.56V3872.09C174.911 4046.74 304.566 3937.99 434.861 3828.67C516.797 3759.92 599.022 3690.94 716.554 3690.04C856.951 3688.95 984.072 3763.86 1110.07 3838.13C1301.23 3950.79 1489.83 4061.88 1717.1 3898.32V3907.53H1717.13Z" fill="white"/>
</mask>
<g mask="url(#mask58_2001_44)">
<path d="M1717.13 3688.92H-96.7755V4069.32H1717.13V3688.92Z" fill="#6557FF"/>
</g>
<mask id="mask59_2001_44" style="mask-type:luminance" maskUnits="userSpaceOnUse" x="-97" y="3685" width="1815" height="287">
<path d="M1717.13 3889.38C1488.9 4051.49 1295.49 3942.42 1100.83 3832.49C975.734 3761.84 850.088 3690.9 714.726 3692.92C602.549 3694.59 521.64 3760.56 440.922 3826.43C307.548 3935.2 174.623 4043.53 -96.7755 3869.78V3861.25C172.827 4035.68 304.149 3928.66 435.888 3821.23C517.663 3754.53 599.631 3687.7 714.63 3686C852.205 3683.94 978.813 3755.43 1104.84 3826.59C1298.09 3935.72 1490.09 4044.01 1717.16 3880.08V3889.38H1717.13Z" fill="white"/>
</mask>
<g mask="url(#mask59_2001_44)">
<path d="M1717.13 3683.98H-96.7755V4051.52H1717.13V3683.98Z" fill="#6557FF"/>
</g>
<mask id="mask60_2001_44" style="mask-type:luminance" maskUnits="userSpaceOnUse" x="-97" y="3681" width="1815" height="274">
<path d="M1717.13 3871.29C1489.06 4033.85 1292.32 3927.6 1095.64 3821.26C970.603 3753.63 845.567 3686 712.93 3688.95C603.255 3691.35 522.602 3755.27 442.077 3819.11C307.227 3925.97 172.603 4032.66 -96.7755 3859.07V3850.54C170.871 4024.84 303.892 3919.46 437.106 3813.89C518.657 3749.24 600.336 3684.52 712.738 3682.05C847.555 3679.07 973.521 3747.18 1099.49 3815.3C1294.79 3920.9 1490.15 4026.41 1717.1 3861.96V3871.29H1717.13Z" fill="white"/>
</mask>
<g mask="url(#mask60_2001_44)">
<path d="M1717.13 3679.07H-96.7755V4033.85H1717.13V3679.07Z" fill="#6557FF"/>
</g>
<mask id="mask61_2001_44" style="mask-type:luminance" maskUnits="userSpaceOnUse" x="-97" y="3677" width="1815" height="264">
<path d="M1717.13 3853.17C1489.12 4016.24 1289.05 3912.85 1090.41 3810.1C965.472 3745.48 841.109 3681.15 711.198 3684.97C603.992 3688.11 523.724 3749.94 443.392 3811.8C307.099 3916.8 170.678 4021.85 -96.7755 3848.43V3839.9C169.011 4014.09 303.828 3910.29 438.517 3806.51C519.844 3743.88 601.106 3681.28 710.942 3678.04C842.969 3674.16 968.262 3738.97 1094.13 3804.07C1291.42 3906.15 1490.21 4008.8 1717.1 3843.78V3853.17H1717.13Z" fill="white"/>
</mask>
<g mask="url(#mask61_2001_44)">
<path d="M1717.13 3674.16H-96.7755V4021.82H1717.13V3674.16Z" fill="#6557FF"/>
</g>
<mask id="mask62_2001_44" style="mask-type:luminance" maskUnits="userSpaceOnUse" x="-97" y="3673" width="1815" height="258">
<path d="M1717.13 3835.09C1489.16 3998.73 1285.68 3898.26 1085.15 3799.14C960.373 3737.44 836.748 3676.34 709.563 3680.99C604.89 3684.81 525.007 3744.62 444.995 3804.52C307.163 3907.72 168.883 4011.14 -96.7755 3837.88V3829.31C167.247 4003.45 303.956 3901.15 440.153 3799.17C521.159 3738.53 602.004 3678.01 709.242 3674.1C838.544 3669.35 963.067 3730.89 1088.74 3793.04C1288.02 3891.53 1490.25 3991.36 1717.13 3825.69V3835.09Z" fill="white"/>
</mask>
<g mask="url(#mask62_2001_44)">
<path d="M1717.13 3669.35H-96.7755V4011.18H1717.13V3669.35Z" fill="#6557FF"/>
</g>
<mask id="mask63_2001_44" style="mask-type:luminance" maskUnits="userSpaceOnUse" x="-97" y="3669" width="1815" height="252">
<path d="M1717.13 3816.93C1489.09 3981.32 1282.25 3883.8 1079.86 3788.3C955.338 3729.51 832.515 3671.57 707.959 3677.08C605.82 3681.57 526.418 3739.36 446.759 3797.31C307.388 3898.71 167.183 4000.66 -96.7755 3827.42V3818.83C165.612 3992.9 304.277 3892.1 442.045 3791.89C522.666 3733.2 602.998 3674.74 707.607 3670.12C834.182 3664.54 957.904 3722.91 1083.32 3782.11C1284.49 3877.06 1490.15 3973.98 1717.13 3807.57V3816.93Z" fill="white"/>
</mask>
<g mask="url(#mask63_2001_44)">
<path d="M1717.13 3664.54H-96.7755V4000.62H1717.13V3664.54Z" fill="#6557FF"/>
</g>
<mask id="mask64_2001_44" style="mask-type:luminance" maskUnits="userSpaceOnUse" x="-97" y="3758" width="1815" height="476">
<path d="M1717.13 3974.84C1280.61 4396.19 1069.79 4220.81 830.879 4021.95C689.744 3904.48 538.764 3778.8 325.218 3764.95C149.737 3753.57 50.0676 3849.64 -49.7947 3945.91C-65.3481 3960.92 -80.9335 3975.9 -96.7755 3990.52V3982.92C-82.4408 3969.61 -68.2984 3956.02 -54.1881 3942.39C46.6362 3845.19 147.3 3748.15 325.635 3759.72C541.298 3773.71 693.112 3900.06 834.984 4018.13C1072.33 4215.68 1281.7 4389.81 1717.13 3967.02V3974.84Z" fill="white"/>
</mask>
<g mask="url(#mask64_2001_44)">
<path d="M1717.13 3748.21H-96.7755V4396.23H1717.13V3748.21Z" fill="#6557FF"/>
</g>
<mask id="mask65_2001_44" style="mask-type:luminance" maskUnits="userSpaceOnUse" x="-97" y="3563" width="1815" height="599">
<path d="M1717.13 3608.49C1647.48 3588.32 1573.75 3574.75 1494.93 3569.84C1198.61 3551.4 1030.22 3707.1 861.505 3863.08C639.364 4068.51 416.646 4274.43 -97 4090.22V4084.07C413.632 4268.14 634.682 4063.8 855.155 3859.91C1025.18 3702.74 1194.89 3545.82 1495.63 3564.52C1574.17 3569.39 1647.7 3582.8 1717.13 3602.65V3608.49Z" fill="white"/>
</mask>
<g mask="url(#mask65_2001_44)">
<path d="M1717.13 3545.82H-97.0001V4274.43H1717.13V3545.82Z" fill="#6557FF"/>
</g>
</g>
<circle cx="629" cy="1821" r="419" fill="url(#paint34_radial_2001_44)" fill-opacity="0.2"/>
<circle cx="1414" cy="1366" r="419" fill="url(#paint35_radial_2001_44)" fill-opacity="0.2"/>
<circle cx="-10" cy="3682" r="419" fill="url(#paint36_radial_2001_44)" fill-opacity="0.2"/>
<circle cx="1368" cy="4841" r="419" fill="url(#paint37_radial_2001_44)" fill-opacity="0.2"/>
<path d="M1658.12 -36.5339C1814.53 6.58801 1986.55 37.0641 2068.47 177.111C2152.14 320.166 2120.55 495.544 2059.44 649.592C1996.99 806.997 1902.05 967.767 1738.05 1009.96C1577.83 1051.19 1441.85 923.585 1295.68 846.102C1099.75 742.247 816.426 712.882 768.953 496.271C718.595 266.5 888.161 28.2344 1089.93 -92.6714C1261.69 -195.592 1465.09 -89.7528 1658.12 -36.5339Z" fill="url(#paint38_linear_2001_44)"/>
<g opacity="0.1" clip-path="url(#clip1_2001_44)">
<path d="M1358.8 1150.2C1365.7 1157.1 1365.7 1168.4 1358.8 1175.3C1351.9 1182.2 1340.6 1182.2 1333.7 1175.3" stroke="white" strokeWidth="6" stroke-miterlimit="10"/>
<path d="M1359.1 1150.4C1366 1157.3 1366 1168.6 1359.1 1175.5C1352.2 1182.4 1340.9 1182.4 1334 1175.5" stroke="white" strokeWidth="2" stroke-miterlimit="10" strokeLinecap="round" strokeLinejoin="round"/>
<path d="M1332.5 1165.5C1323.1 1165.5 1315.5 1157.9 1315.5 1148.5C1315.5 1139.1 1323.1 1131.5 1332.5 1131.5C1341.9 1131.5 1349.5 1139.1 1349.5 1148.5C1349.5 1157.9 1341.9 1165.5 1332.5 1165.5ZM1332.5 1139.5C1327.5 1139.5 1323.5 1143.5 1323.5 1148.5C1323.5 1153.5 1327.5 1157.5 1332.5 1157.5C1337.5 1157.5 1341.5 1153.5 1341.5 1148.5C1341.5 1143.5 1337.5 1139.5 1332.5 1139.5Z" fill="white"/>
<path d="M1314 1147C1304.6 1147 1297 1139.4 1297 1130C1297 1120.6 1304.6 1113 1314 1113C1323.4 1113 1331 1120.6 1331 1130C1331 1139.4 1323.4 1147 1314 1147ZM1314 1121C1309 1121 1305 1125 1305 1130C1305 1135 1309 1139 1314 1139C1319 1139 1323 1135 1323 1130C1323 1125 1319 1121 1314 1121Z" stroke="white" strokeWidth="2" stroke-miterlimit="10"/>
</g>
<g opacity="0.1" clip-path="url(#clip2_2001_44)">
<path d="M751.8 245.2C758.7 252.1 758.7 263.4 751.8 270.3C744.9 277.2 733.6 277.2 726.7 270.3" stroke="white" strokeWidth="6" stroke-miterlimit="10"/>
<path d="M752.1 245.4C759 252.3 759 263.6 752.1 270.5C745.2 277.4 733.9 277.4 727 270.5" stroke="white" strokeWidth="2" stroke-miterlimit="10" strokeLinecap="round" strokeLinejoin="round"/>
<path d="M725.5 260.5C716.1 260.5 708.5 252.9 708.5 243.5C708.5 234.1 716.1 226.5 725.5 226.5C734.9 226.5 742.5 234.1 742.5 243.5C742.5 252.9 734.9 260.5 725.5 260.5ZM725.5 234.5C720.5 234.5 716.5 238.5 716.5 243.5C716.5 248.5 720.5 252.5 725.5 252.5C730.5 252.5 734.5 248.5 734.5 243.5C734.5 238.5 730.5 234.5 725.5 234.5Z" fill="white"/>
<path d="M707 242C697.6 242 690 234.4 690 225C690 215.6 697.6 208 707 208C716.4 208 724 215.6 724 225C724 234.4 716.4 242 707 242ZM707 216C702 216 698 220 698 225C698 230 702 234 707 234C712 234 716 230 716 225C716 220 712 216 707 216Z" stroke="white" strokeWidth="2" stroke-miterlimit="10"/>
</g>
<g opacity="0.1" clip-path="url(#clip3_2001_44)">
<path d="M140.8 1805.2C147.7 1812.1 147.7 1823.4 140.8 1830.3C133.9 1837.2 122.6 1837.2 115.7 1830.3" stroke="white" strokeWidth="6" stroke-miterlimit="10"/>
<path d="M141.1 1805.4C148 1812.3 148 1823.6 141.1 1830.5C134.2 1837.4 122.9 1837.4 116 1830.5" stroke="white" strokeWidth="2" stroke-miterlimit="10" strokeLinecap="round" strokeLinejoin="round"/>
<path d="M114.5 1820.5C105.1 1820.5 97.5 1812.9 97.5 1803.5C97.5 1794.1 105.1 1786.5 114.5 1786.5C123.9 1786.5 131.5 1794.1 131.5 1803.5C131.5 1812.9 123.9 1820.5 114.5 1820.5ZM114.5 1794.5C109.5 1794.5 105.5 1798.5 105.5 1803.5C105.5 1808.5 109.5 1812.5 114.5 1812.5C119.5 1812.5 123.5 1808.5 123.5 1803.5C123.5 1798.5 119.5 1794.5 114.5 1794.5Z" fill="white"/>
<path d="M96 1802C86.6 1802 79 1794.4 79 1785C79 1775.6 86.6 1768 96 1768C105.4 1768 113 1775.6 113 1785C113 1794.4 105.4 1802 96 1802ZM96 1776C91 1776 87 1780 87 1785C87 1790 91 1794 96 1794C101 1794 105 1790 105 1785C105 1780 101 1776 96 1776Z" stroke="white" strokeWidth="2" stroke-miterlimit="10"/>
</g>
<g opacity="0.1" clip-path="url(#clip4_2001_44)">
<path d="M1303.8 4290.2C1310.7 4297.1 1310.7 4308.4 1303.8 4315.3C1296.9 4322.2 1285.6 4322.2 1278.7 4315.3" stroke="white" strokeWidth="6" stroke-miterlimit="10"/>
<path d="M1304.1 4290.4C1311 4297.3 1311 4308.6 1304.1 4315.5C1297.2 4322.4 1285.9 4322.4 1279 4315.5" stroke="white" strokeWidth="2" stroke-miterlimit="10" strokeLinecap="round" strokeLinejoin="round"/>
<path d="M1277.5 4305.5C1268.1 4305.5 1260.5 4297.9 1260.5 4288.5C1260.5 4279.1 1268.1 4271.5 1277.5 4271.5C1286.9 4271.5 1294.5 4279.1 1294.5 4288.5C1294.5 4297.9 1286.9 4305.5 1277.5 4305.5ZM1277.5 4279.5C1272.5 4279.5 1268.5 4283.5 1268.5 4288.5C1268.5 4293.5 1272.5 4297.5 1277.5 4297.5C1282.5 4297.5 1286.5 4293.5 1286.5 4288.5C1286.5 4283.5 1282.5 4279.5 1277.5 4279.5Z" fill="white"/>
<path d="M1259 4287C1249.6 4287 1242 4279.4 1242 4270C1242 4260.6 1249.6 4253 1259 4253C1268.4 4253 1276 4260.6 1276 4270C1276 4279.4 1268.4 4287 1259 4287ZM1259 4261C1254 4261 1250 4265 1250 4270C1250 4275 1254 4279 1259 4279C1264 4279 1268 4275 1268 4270C1268 4265 1264 4261 1259 4261Z" stroke="white" strokeWidth="2" stroke-miterlimit="10"/>
</g>
<g opacity="0.1" clip-path="url(#clip5_2001_44)">
<path d="M1336.8 5623.2C1343.7 5630.1 1343.7 5641.4 1336.8 5648.3C1329.9 5655.2 1318.6 5655.2 1311.7 5648.3" stroke="white" strokeWidth="6" stroke-miterlimit="10"/>
<path d="M1337.1 5623.4C1344 5630.3 1344 5641.6 1337.1 5648.5C1330.2 5655.4 1318.9 5655.4 1312 5648.5" stroke="white" strokeWidth="2" stroke-miterlimit="10" strokeLinecap="round" strokeLinejoin="round"/>
<path d="M1310.5 5638.5C1301.1 5638.5 1293.5 5630.9 1293.5 5621.5C1293.5 5612.1 1301.1 5604.5 1310.5 5604.5C1319.9 5604.5 1327.5 5612.1 1327.5 5621.5C1327.5 5630.9 1319.9 5638.5 1310.5 5638.5ZM1310.5 5612.5C1305.5 5612.5 1301.5 5616.5 1301.5 5621.5C1301.5 5626.5 1305.5 5630.5 1310.5 5630.5C1315.5 5630.5 1319.5 5626.5 1319.5 5621.5C1319.5 5616.5 1315.5 5612.5 1310.5 5612.5Z" fill="white"/>
<path d="M1292 5620C1282.6 5620 1275 5612.4 1275 5603C1275 5593.6 1282.6 5586 1292 5586C1301.4 5586 1309 5593.6 1309 5603C1309 5612.4 1301.4 5620 1292 5620ZM1292 5594C1287 5594 1283 5598 1283 5603C1283 5608 1287 5612 1292 5612C1297 5612 1301 5608 1301 5603C1301 5598 1297 5594 1292 5594Z" stroke="white" strokeWidth="2" stroke-miterlimit="10"/>
</g>
<g opacity="0.1" clip-path="url(#clip6_2001_44)">
<path d="M108.8 5002.2C115.7 5009.1 115.7 5020.4 108.8 5027.3C101.9 5034.2 90.6 5034.2 83.7 5027.3" stroke="white" strokeWidth="6" stroke-miterlimit="10"/>
<path d="M109.1 5002.4C116 5009.3 116 5020.6 109.1 5027.5C102.2 5034.4 90.9 5034.4 84 5027.5" stroke="white" strokeWidth="2" stroke-miterlimit="10" strokeLinecap="round" strokeLinejoin="round"/>
<path d="M82.5 5017.5C73.1 5017.5 65.5 5009.9 65.5 5000.5C65.5 4991.1 73.1 4983.5 82.5 4983.5C91.9 4983.5 99.5 4991.1 99.5 5000.5C99.5 5009.9 91.9 5017.5 82.5 5017.5ZM82.5 4991.5C77.5 4991.5 73.5 4995.5 73.5 5000.5C73.5 5005.5 77.5 5009.5 82.5 5009.5C87.5 5009.5 91.5 5005.5 91.5 5000.5C91.5 4995.5 87.5 4991.5 82.5 4991.5Z" fill="white"/>
<path d="M64 4999C54.6 4999 47 4991.4 47 4982C47 4972.6 54.6 4965 64 4965C73.4 4965 81 4972.6 81 4982C81 4991.4 73.4 4999 64 4999ZM64 4973C59 4973 55 4977 55 4982C55 4987 59 4991 64 4991C69 4991 73 4987 73 4982C73 4977 69 4973 64 4973Z" stroke="white" strokeWidth="2" stroke-miterlimit="10"/>
</g>
<g opacity="0.1" clip-path="url(#clip7_2001_44)">
<path d="M196.6 3786.6C192 3777.9 195.3 3767.2 204 3762.6C212.7 3758 223.4 3761.3 228 3770" stroke="white" strokeWidth="15" stroke-miterlimit="10" strokeLinecap="round" strokeLinejoin="round"/>
</g>
<g opacity="0.1" clip-path="url(#clip8_2001_44)">
<path d="M1224.6 1979.6C1220 1970.9 1223.3 1960.2 1232 1955.6C1240.7 1951 1251.4 1954.3 1256 1963" stroke="white" strokeWidth="15" stroke-miterlimit="10" strokeLinecap="round" strokeLinejoin="round"/>
</g>
<g opacity="0.1" clip-path="url(#clip9_2001_44)">
<path d="M97.6 1152.6C93 1143.9 96.3 1133.2 105 1128.6C113.7 1124 124.4 1127.3 129 1136" stroke="white" strokeWidth="15" stroke-miterlimit="10" strokeLinecap="round" strokeLinejoin="round"/>
</g>
<path d="M106.6 5167.28V5169.74H105.858V5167.28L103.01 5162.62H103.814L106.254 5166.62L108.695 5162.62H109.448L106.6 5167.28ZM113.419 5169.8C112.714 5169.8 112.073 5169.65 111.497 5169.33C110.927 5169.01 110.48 5168.58 110.155 5168.03C109.836 5167.48 109.677 5166.87 109.677 5166.18C109.677 5165.5 109.836 5164.88 110.155 5164.33C110.48 5163.78 110.927 5163.35 111.497 5163.04C112.073 5162.72 112.714 5162.56 113.419 5162.56C114.124 5162.56 114.758 5162.72 115.321 5163.03C115.89 5163.34 116.338 5163.77 116.663 5164.33C116.989 5164.88 117.151 5165.5 117.151 5166.18C117.151 5166.87 116.989 5167.49 116.663 5168.04C116.338 5168.59 115.89 5169.02 115.321 5169.33C114.758 5169.65 114.124 5169.8 113.419 5169.8ZM113.419 5169.13C113.982 5169.13 114.49 5169 114.945 5168.75C115.399 5168.5 115.755 5168.14 116.012 5167.7C116.27 5167.24 116.399 5166.74 116.399 5166.18C116.399 5165.62 116.27 5165.12 116.012 5164.68C115.755 5164.22 115.399 5163.87 114.945 5163.62C114.49 5163.36 113.982 5163.23 113.419 5163.23C112.856 5163.23 112.344 5163.36 111.883 5163.62C111.429 5163.87 111.07 5164.22 110.805 5164.68C110.548 5165.12 110.419 5165.62 110.419 5166.18C110.419 5166.74 110.548 5167.24 110.805 5167.7C111.07 5168.14 111.429 5168.5 111.883 5168.75C112.344 5169 112.856 5169.13 113.419 5169.13ZM121.706 5169.8C120.784 5169.8 120.066 5169.54 119.55 5169.01C119.035 5168.48 118.777 5167.71 118.777 5166.7V5162.62H119.53V5166.67C119.53 5167.5 119.716 5168.11 120.089 5168.52C120.462 5168.93 121.001 5169.13 121.706 5169.13C122.418 5169.13 122.961 5168.93 123.333 5168.52C123.706 5168.11 123.893 5167.5 123.893 5166.67V5162.62H124.625V5166.7C124.625 5167.71 124.367 5168.48 123.852 5169.01C123.344 5169.54 122.628 5169.8 121.706 5169.8ZM131.754 5169.74L130.127 5167.45C129.944 5167.47 129.754 5167.48 129.557 5167.48H127.645V5169.74H126.893V5162.62H129.557C130.466 5162.62 131.178 5162.84 131.693 5163.27C132.208 5163.71 132.466 5164.3 132.466 5165.06C132.466 5165.62 132.324 5166.09 132.039 5166.48C131.761 5166.86 131.361 5167.13 130.839 5167.3L132.578 5169.74H131.754ZM129.537 5166.84C130.242 5166.84 130.781 5166.69 131.154 5166.37C131.527 5166.06 131.713 5165.62 131.713 5165.06C131.713 5164.49 131.527 5164.05 131.154 5163.74C130.781 5163.43 130.242 5163.27 129.537 5163.27H127.645V5166.84H129.537Z" fill="#200A55"/>
</g>
<defs>
<radialGradient id="paint0_radial_2001_44" cx="0" cy="0" r="1" gradientUnits="userSpaceOnUse" gradientTransform="translate(115 2106) rotate(90) scale(354)">
<stop stop-color="#6557FF"/>
<stop offset="1" stop-color="#6557FF" stop-opacity="0"/>
</radialGradient>
<radialGradient id="paint1_radial_2001_44" cx="0" cy="0" r="1" gradientUnits="userSpaceOnUse" gradientTransform="translate(152 3959) rotate(90) scale(354)">
<stop stop-color="#6557FF"/>
<stop offset="1" stop-color="#6557FF" stop-opacity="0"/>
</radialGradient>
<radialGradient id="paint2_radial_2001_44" cx="0" cy="0" r="1" gradientUnits="userSpaceOnUse" gradientTransform="translate(1343 4552) rotate(90) scale(354)">
<stop stop-color="#6557FF"/>
<stop offset="1" stop-color="#6557FF" stop-opacity="0"/>
</radialGradient>
<radialGradient id="paint3_radial_2001_44" cx="0" cy="0" r="1" gradientUnits="userSpaceOnUse" gradientTransform="translate(130 5184) rotate(90) scale(354)">
<stop stop-color="#6557FF"/>
<stop offset="1" stop-color="#6557FF" stop-opacity="0"/>
</radialGradient>
<radialGradient id="paint4_radial_2001_44" cx="0" cy="0" r="1" gradientUnits="userSpaceOnUse" gradientTransform="translate(1400 1465) rotate(90) scale(354)">
<stop stop-color="#6557FF"/>
<stop offset="1" stop-color="#6557FF" stop-opacity="0"/>
</radialGradient>
<radialGradient id="paint5_radial_2001_44" cx="0" cy="0" r="1" gradientUnits="userSpaceOnUse" gradientTransform="translate(144 154) rotate(90) scale(354)">
<stop stop-color="#E7498B"/>
<stop offset="1" stop-color="#FD4677" stop-opacity="0"/>
</radialGradient>
<radialGradient id="paint6_radial_2001_44" cx="0" cy="0" r="1" gradientUnits="userSpaceOnUse" gradientTransform="translate(1305 1208) rotate(90) scale(354)">
<stop stop-color="#E7498B"/>
<stop offset="1" stop-color="#FD4677" stop-opacity="0"/>
</radialGradient>
<radialGradient id="paint7_radial_2001_44" cx="0" cy="0" r="1" gradientUnits="userSpaceOnUse" gradientTransform="translate(-57 1872) rotate(90) scale(354)">
<stop stop-color="#E7498B"/>
<stop offset="1" stop-color="#FD4677" stop-opacity="0"/>
</radialGradient>
<radialGradient id="paint8_radial_2001_44" cx="0" cy="0" r="1" gradientUnits="userSpaceOnUse" gradientTransform="translate(-20 3725) rotate(90) scale(354)">
<stop stop-color="#E7498B"/>
<stop offset="1" stop-color="#FD4677" stop-opacity="0"/>
</radialGradient>
<radialGradient id="paint9_radial_2001_44" cx="0" cy="0" r="1" gradientUnits="userSpaceOnUse" gradientTransform="translate(1171 4318) rotate(90) scale(354)">
<stop stop-color="#E7498B"/>
<stop offset="1" stop-color="#FD4677" stop-opacity="0"/>
</radialGradient>
<radialGradient id="paint10_radial_2001_44" cx="0" cy="0" r="1" gradientUnits="userSpaceOnUse" gradientTransform="translate(-42 4950) rotate(90) scale(354)">
<stop stop-color="#E7498B"/>
<stop offset="1" stop-color="#FD4677" stop-opacity="0"/>
</radialGradient>
<radialGradient id="paint11_radial_2001_44" cx="0" cy="0" r="1" gradientUnits="userSpaceOnUse" gradientTransform="translate(74 1160) rotate(90) scale(419)">
<stop stop-color="#FD4677"/>
<stop offset="1" stop-color="#B3418F" stop-opacity="0"/>
</radialGradient>
<linearGradient id="paint12_linear_2001_44" x1="802.179" y1="87.7935" x2="802.179" y2="734.654" gradientUnits="userSpaceOnUse">
<stop stop-color="#6557FF"/>
<stop offset="1" stop-color="#3C3499" stop-opacity="0"/>
</linearGradient>
<linearGradient id="paint13_linear_2001_44" x1="802.179" y1="224.792" x2="802.179" y2="745.653" gradientUnits="userSpaceOnUse">
<stop stop-color="#6557FF"/>
<stop offset="1" stop-color="#3C3499" stop-opacity="0"/>
</linearGradient>
<linearGradient id="paint14_linear_2001_44" x1="802.179" y1="221.681" x2="802.179" y2="728.625" gradientUnits="userSpaceOnUse">
<stop stop-color="#6557FF"/>
<stop offset="1" stop-color="#3C3499" stop-opacity="0"/>
</linearGradient>
<linearGradient id="paint15_linear_2001_44" x1="802.179" y1="218.57" x2="802.179" y2="711.724" gradientUnits="userSpaceOnUse">
<stop stop-color="#6557FF"/>
<stop offset="1" stop-color="#3C3499" stop-opacity="0"/>
</linearGradient>
<linearGradient id="paint16_linear_2001_44" x1="802.179" y1="215.459" x2="802.179" y2="694.985" gradientUnits="userSpaceOnUse">
<stop stop-color="#6557FF"/>
<stop offset="1" stop-color="#3C3499" stop-opacity="0"/>
</linearGradient>
<linearGradient id="paint17_linear_2001_44" x1="802.179" y1="212.349" x2="802.179" y2="678.469" gradientUnits="userSpaceOnUse">
<stop stop-color="#6557FF"/>
<stop offset="1" stop-color="#3C3499" stop-opacity="0"/>
</linearGradient>
<linearGradient id="paint18_linear_2001_44" x1="802.179" y1="209.206" x2="802.179" y2="662.114" gradientUnits="userSpaceOnUse">
<stop stop-color="#6557FF"/>
<stop offset="1" stop-color="#3C3499" stop-opacity="0"/>
</linearGradient>
<linearGradient id="paint19_linear_2001_44" x1="802.179" y1="206.063" x2="802.179" y2="646.079" gradientUnits="userSpaceOnUse">
<stop stop-color="#6557FF"/>
<stop offset="1" stop-color="#3C3499" stop-opacity="0"/>
</linearGradient>
<linearGradient id="paint20_linear_2001_44" x1="802.179" y1="202.953" x2="802.179" y2="630.334" gradientUnits="userSpaceOnUse">
<stop stop-color="#6557FF"/>
<stop offset="1" stop-color="#3C3499" stop-opacity="0"/>
</linearGradient>
<linearGradient id="paint21_linear_2001_44" x1="802.179" y1="199.81" x2="802.179" y2="614.844" gradientUnits="userSpaceOnUse">
<stop stop-color="#6557FF"/>
<stop offset="1" stop-color="#3C3499" stop-opacity="0"/>
</linearGradient>
<linearGradient id="paint22_linear_2001_44" x1="802.179" y1="196.635" x2="802.179" y2="599.708" gradientUnits="userSpaceOnUse">
<stop stop-color="#6557FF"/>
<stop offset="1" stop-color="#3C3499" stop-opacity="0"/>
</linearGradient>
<linearGradient id="paint23_linear_2001_44" x1="802.179" y1="193.492" x2="802.179" y2="616.351" gradientUnits="userSpaceOnUse">
<stop stop-color="#6557FF"/>
<stop offset="1" stop-color="#3C3499" stop-opacity="0"/>
</linearGradient>
<linearGradient id="paint24_linear_2001_44" x1="802.179" y1="190.317" x2="802.179" y2="598.265" gradientUnits="userSpaceOnUse">
<stop stop-color="#6557FF"/>
<stop offset="1" stop-color="#3C3499" stop-opacity="0"/>
</linearGradient>
<linearGradient id="paint25_linear_2001_44" x1="802.179" y1="186.918" x2="802.179" y2="580.242" gradientUnits="userSpaceOnUse">
<stop stop-color="#6557FF"/>
<stop offset="1" stop-color="#3C3499" stop-opacity="0"/>
</linearGradient>
<linearGradient id="paint26_linear_2001_44" x1="802.179" y1="181.916" x2="802.179" y2="562.316" gradientUnits="userSpaceOnUse">
<stop stop-color="#6557FF"/>
<stop offset="1" stop-color="#3C3499" stop-opacity="0"/>
</linearGradient>
<linearGradient id="paint27_linear_2001_44" x1="802.179" y1="176.977" x2="802.179" y2="544.518" gradientUnits="userSpaceOnUse">
<stop stop-color="#6557FF"/>
<stop offset="1" stop-color="#3C3499" stop-opacity="0"/>
</linearGradient>
<linearGradient id="paint28_linear_2001_44" x1="802.179" y1="172.07" x2="802.179" y2="526.847" gradientUnits="userSpaceOnUse">
<stop stop-color="#6557FF"/>
<stop offset="1" stop-color="#3C3499" stop-opacity="0"/>
</linearGradient>
<linearGradient id="paint29_linear_2001_44" x1="802.179" y1="167.164" x2="802.179" y2="514.822" gradientUnits="userSpaceOnUse">
<stop stop-color="#6557FF"/>
<stop offset="1" stop-color="#3C3499" stop-opacity="0"/>
</linearGradient>
<linearGradient id="paint30_linear_2001_44" x1="802.179" y1="162.354" x2="802.179" y2="504.175" gradientUnits="userSpaceOnUse">
<stop stop-color="#6557FF"/>
<stop offset="1" stop-color="#3C3499" stop-opacity="0"/>
</linearGradient>
<linearGradient id="paint31_linear_2001_44" x1="802.179" y1="157.543" x2="802.179" y2="493.624" gradientUnits="userSpaceOnUse">
<stop stop-color="#6557FF"/>
<stop offset="1" stop-color="#3C3499" stop-opacity="0"/>
</linearGradient>
<linearGradient id="paint32_linear_2001_44" x1="802.179" y1="241.211" x2="802.179" y2="889.225" gradientUnits="userSpaceOnUse">
<stop stop-color="#6557FF"/>
<stop offset="1" stop-color="#3C3499" stop-opacity="0"/>
</linearGradient>
<linearGradient id="paint33_linear_2001_44" x1="802.066" y1="38.8245" x2="802.066" y2="767.428" gradientUnits="userSpaceOnUse">
<stop stop-color="#6557FF"/>
<stop offset="1" stop-color="#3C3499" stop-opacity="0"/>
</linearGradient>
<radialGradient id="paint34_radial_2001_44" cx="0" cy="0" r="1" gradientUnits="userSpaceOnUse" gradientTransform="translate(629 1821) rotate(90) scale(419)">
<stop stop-color="#FD4677"/>
<stop offset="1" stop-color="#B3418F" stop-opacity="0"/>
</radialGradient>
<radialGradient id="paint35_radial_2001_44" cx="0" cy="0" r="1" gradientUnits="userSpaceOnUse" gradientTransform="translate(1414 1366) rotate(90) scale(419)">
<stop stop-color="#FD4677"/>
<stop offset="1" stop-color="#B3418F" stop-opacity="0"/>
</radialGradient>
<radialGradient id="paint36_radial_2001_44" cx="0" cy="0" r="1" gradientUnits="userSpaceOnUse" gradientTransform="translate(-10 3682) rotate(90) scale(419)">
<stop stop-color="#FD4677"/>
<stop offset="1" stop-color="#B3418F" stop-opacity="0"/>
</radialGradient>
<radialGradient id="paint37_radial_2001_44" cx="0" cy="0" r="1" gradientUnits="userSpaceOnUse" gradientTransform="translate(1368 4841) rotate(90) scale(419)">
<stop stop-color="#FD4677"/>
<stop offset="1" stop-color="#B3418F" stop-opacity="0"/>
</radialGradient>
<linearGradient id="paint38_linear_2001_44" x1="1439.64" y1="-136" x2="812" y2="547" gradientUnits="userSpaceOnUse">
<stop stop-color="#FD4677"/>
<stop offset="1" stop-color="#B3418F" stop-opacity="0"/>
</linearGradient>
<clipPath id="clip0_2001_44">
<rect width="1440" height="6163" fill="white"/>
</clipPath>
<clipPath id="clip1_2001_44">
<rect width="71" height="71.5" fill="white" transform="translate(1296 1112)"/>
</clipPath>
<clipPath id="clip2_2001_44">
<rect width="71" height="71.5" fill="white" transform="translate(689 207)"/>
</clipPath>
<clipPath id="clip3_2001_44">
<rect width="71" height="71.5" fill="white" transform="translate(78 1767)"/>
</clipPath>
<clipPath id="clip4_2001_44">
<rect width="71" height="71.5" fill="white" transform="translate(1241 4252)"/>
</clipPath>
<clipPath id="clip5_2001_44">
<rect width="71" height="71.5" fill="white" transform="translate(1274 5585)"/>
</clipPath>
<clipPath id="clip6_2001_44">
<rect width="71" height="71.5" fill="white" transform="translate(46 4964)"/>
</clipPath>
<clipPath id="clip7_2001_44">
<rect width="48.4" height="41.1" fill="white" transform="translate(187 3753)"/>
</clipPath>
<clipPath id="clip8_2001_44">
<rect width="48.4" height="41.1" fill="white" transform="translate(1215 1946)"/>
</clipPath>
<clipPath id="clip9_2001_44">
<rect width="48.4" height="41.1" fill="white" transform="translate(88 1119)"/>
</clipPath>
</defs>
</svg>
